HIERARCHY
ROOT hips
{
  OFFSET 0 10.6860622 2.3727825e-15
  CHANNELS 6 Xposition Yposition Zposition Yrotation Xrotation Zrotation
  JOINT leftUpperLeg
  {
    OFFSET 0.6642549969 -0.9402397400000004 0
    CHANNELS 3 Yrotation Xrotation Zrotation
    JOINT leftLowerLeg
    {
      OFFSET 0 -3.997221335632195 0
      CHANNELS 3 Yrotation Xrotation Zrotation
      JOINT leftFoot
      {
        OFFSET -0.13777839790000004 -4.6145792000000005 -0.22186036399999998
        CHANNELS 3 Yrotation Xrotation Zrotation
        JOINT leftToes
        {
          OFFSET -0.03777410834999995 -0.9130806927000008 0.85230013
          CHANNELS 3 Yrotation Xrotation Zrotation
          End Site
          {
            OFFSET -0.03777410834999995 -0.9130806927000008 0.85230013
          }
        }
      }
    }
  }
  JOINT rightUpperLeg
  {
    OFFSET -0.6642778626 -0.9402397400000004 0
    CHANNELS 3 Yrotation Xrotation Zrotation
    JOINT rightLowerLeg
    {
      OFFSET 0 -3.997221452859387 0
      CHANNELS 3 Yrotation Xrotation Zrotation
      JOINT rightFoot
      {
        OFFSET 0.1377926176 -4.6145792000000005 -0.22185782299999995
        CHANNELS 3 Yrotation Xrotation Zrotation
        JOINT rightToes
        {
          OFFSET 0.037780746850000047 -0.9130806927000008 0.85230167
          CHANNELS 3 Yrotation Xrotation Zrotation
          End Site
          {
            OFFSET 0.037780746850000047 -0.9130806927000008 0.85230167
          }
        }
      }
    }
  }
  JOINT spine
  {
    OFFSET 0 0.13988381660000015 0
    CHANNELS 3 Yrotation Xrotation Zrotation
    JOINT chest
    {
      OFFSET 0 0.6191039003973773 0
      CHANNELS 3 Yrotation Xrotation Zrotation
      JOINT upperChest
      {
        OFFSET 0 0.9855186130586943 0
        CHANNELS 3 Yrotation Xrotation Zrotation
        JOINT leftShoulder
        {
          OFFSET 0.1807663869 1.5087829790000005 0
          CHANNELS 3 Yrotation Xrotation Zrotation
          JOINT leftUpperArm
          {
            OFFSET 0.5985063006419806 0 0
            CHANNELS 3 Yrotation Xrotation Zrotation
            JOINT leftLowerArm
            {
              OFFSET 2.2993332369501065 0 0
              CHANNELS 3 Yrotation Xrotation Zrotation
              JOINT leftHand
              {
                OFFSET 2.395047042602395 0 0
                CHANNELS 3 Yrotation Xrotation Zrotation
                JOINT leftIndexProximal
                {
                  OFFSET 0.5766295810000004 0.04556643899499946 0.17265095988184
                  CHANNELS 3 Yrotation Xrotation Zrotation
                  JOINT leftIndexIntermediate
                  {
                    OFFSET 0.2957229000000008 -0.019352197700001517 -0.007932640616999987
                    CHANNELS 3 Yrotation Xrotation Zrotation
                    JOINT leftIndexDistal
                    {
                      OFFSET 0.19008243099999922 -0.012484908149998475 -0.002786250786000012
                      CHANNELS 3 Yrotation Xrotation Zrotation
                      End Site
                      {
                        OFFSET 0.19008243099999922 -0.012484908149998475 -0.002786250786000012
                      }
                    }
                  }
                }
                JOINT leftMiddleProximal
                {
                  OFFSET 0.5834975091000001 0.0524350405149987 0.02204081888183999
                  CHANNELS 3 Yrotation Xrotation Zrotation
                  JOINT leftMiddleIntermediate
                  {
                    OFFSET 0.33880573540000003 -0.019871473270000717 -0.00000971183179999946
                    CHANNELS 3 Yrotation Xrotation Zrotation
                    JOINT leftMiddleDistal
                    {
                      OFFSET 0.20676022730000088 -0.012221336379999448 0.0001471936708000235
                      CHANNELS 3 Yrotation Xrotation Zrotation
                      End Site
                      {
                        OFFSET 0.20676022730000088 -0.012221336379999448 0.0001471936708000235
                      }
                    }
                  }
                }
                JOINT leftLittleProximal
                {
                  OFFSET 0.5344154683999995 -0.012880921405001189 -0.24414037221816004
                  CHANNELS 3 Yrotation Xrotation Zrotation
                  JOINT leftLittleIntermediate
                  {
                    OFFSET 0.21758961730000093 -0.011650919939999227 0.011893592810000034
                    CHANNELS 3 Yrotation Xrotation Zrotation
                    JOINT leftLittleDistal
                    {
                      OFFSET 0.1475273964999999 -0.008152365682999818 0.006001092492999946
                      CHANNELS 3 Yrotation Xrotation Zrotation
                      End Site
                      {
                        OFFSET 0.1475273964999999 -0.008152365682999818 0.006001092492999946
                      }
                    }
                  }
                }
                JOINT leftRingProximal
                {
                  OFFSET 0.5799399463000003 0.026911854694997794 -0.12150566991816003
                  CHANNELS 3 Yrotation Xrotation Zrotation
                  JOINT leftRingIntermediate
                  {
                    OFFSET 0.26167887460000006 -0.013480186499999602 0.010996293000000053
                    CHANNELS 3 Yrotation Xrotation Zrotation
                    JOINT leftRingDistal
                    {
                      OFFSET 0.17667108799999987 -0.008990287899999228 0.0055541023999999065
                      CHANNELS 3 Yrotation Xrotation Zrotation
                      End Site
                      {
                        OFFSET 0.17667108799999987 -0.008990287899999228 0.0055541023999999065
                      }
                    }
                  }
                }
                JOINT leftThumbProximal
                {
                  OFFSET 0.11018806699999972 -0.09448718900500053 0.17047963138184
                  CHANNELS 3 Yrotation Xrotation Zrotation
                  JOINT leftThumbIntermediate
                  {
                    OFFSET 0.31062601459999983 -0.08126270900000132 0.15443142000000007
                    CHANNELS 3 Yrotation Xrotation Zrotation
                    JOINT leftThumbDistal
                    {
                      OFFSET 0.21627175790000086 -0.08833193599999878 0.018771167799999988
                      CHANNELS 3 Yrotation Xrotation Zrotation
                      End Site
                      {
                        OFFSET 0.21627175790000086 -0.08833193599999878 0.018771167799999988
                      }
                    }
                  }
                }
              }
            }
          }
        }
        JOINT neck
        {
          OFFSET 0 1.5463305265074576 0
          CHANNELS 3 Yrotation Xrotation Zrotation
          JOINT head
          {
            OFFSET 0 0.8456443600000344 0
            CHANNELS 3 Yrotation Xrotation Zrotation
            JOINT leftEye
            {
              OFFSET 0.30408573140000006 0.5104519199999995 0.1276382305
              CHANNELS 3 Yrotation Xrotation Zrotation
              End Site
              {
                OFFSET 0.30408573140000006 0.5104519199999995 0.1276382305
              }
            }
            JOINT rightEye
            {
              OFFSET -0.30409491089999996 0.5104519199999995 0.1276379445
              CHANNELS 3 Yrotation Xrotation Zrotation
              End Site
              {
                OFFSET -0.30409491089999996 0.5104519199999995 0.1276379445
              }
            }
            JOINT jaw
            {
              OFFSET -3.155239131000001e-7 -0.11984121820000082 0.60178107
              CHANNELS 3 Yrotation Xrotation Zrotation
              End Site
              {
                OFFSET -3.155239131000001e-7 -0.11984121820000082 0.60178107
              }
            }
          }
        }
        JOINT rightShoulder
        {
          OFFSET -0.1807303465 1.5087829790000005 0
          CHANNELS 3 Yrotation Xrotation Zrotation
          JOINT rightUpperArm
          {
            OFFSET -0.5985063796536958 0 0
            CHANNELS 3 Yrotation Xrotation Zrotation
            JOINT rightLowerArm
            {
              OFFSET -2.2993322059002854 0 0
              CHANNELS 3 Yrotation Xrotation Zrotation
              JOINT rightHand
              {
                OFFSET -2.395045314457259 0 0
                CHANNELS 3 Yrotation Xrotation Zrotation
                JOINT rightIndexProximal
                {
                  OFFSET -0.5764487688300002 0.0441371204405987 0.17361932004999997
                  CHANNELS 3 Yrotation Xrotation Zrotation
                  JOINT rightIndexIntermediate
                  {
                    OFFSET -0.29573011380000047 -0.01934826376999843 -0.007698921482999974
                    CHANNELS 3 Yrotation Xrotation Zrotation
                    JOINT rightIndexDistal
                    {
                      OFFSET -0.19008373999999884 -0.012503266380000655 -0.0026365778999999897
                      CHANNELS 3 Yrotation Xrotation Zrotation
                      End Site
                      {
                        OFFSET -0.19008373999999884 -0.012503266380000655 -0.0026365778999999897
                      }
                    }
                  }
                }
                JOINT rightMiddleProximal
                {
                  OFFSET -0.5834852037300005 0.05211639405060153 0.02307162440000001
                  CHANNELS 3 Yrotation Xrotation Zrotation
                  JOINT rightMiddleIntermediate
                  {
                    OFFSET -0.33880114510000003 -0.019952774050000954 0.0002455003561999819
                    CHANNELS 3 Yrotation Xrotation Zrotation
                    JOINT rightMiddleDistal
                    {
                      OFFSET -0.20675694929999955 -0.012273788999999091 0.00030209124000002766
                      CHANNELS 3 Yrotation Xrotation Zrotation
                      End Site
                      {
                        OFFSET -0.20675694929999955 -0.012273788999999091 0.00030209124000002766
                      }
                    }
                  }
                }
                JOINT rightLittleProximal
                {
                  OFFSET -0.5346811737299992 -0.011214256288399227 -0.24363941305000003
                  CHANNELS 3 Yrotation Xrotation Zrotation
                  JOINT rightLittleIntermediate
                  {
                    OFFSET -0.21757715980000092 -0.011771559690000988 0.01201554387
                    CHANNELS 3 Yrotation Xrotation Zrotation
                    JOINT rightLittleDistal
                    {
                      OFFSET -0.1475201849000004 -0.00822055339600003 0.006082065407000015
                      CHANNELS 3 Yrotation Xrotation Zrotation
                      End Site
                      {
                        OFFSET -0.1475201849000004 -0.00822055339600003 0.006082065407000015
                      }
                    }
                  }
                }
                JOINT rightRingProximal
                {
                  OFFSET -0.5800810755299999 0.027657985680600072 -0.12066365025000003
                  CHANNELS 3 Yrotation Xrotation Zrotation
                  JOINT rightRingIntermediate
                  {
                    OFFSET -0.26166445029999974 -0.013623118409999302 0.011164098990000045
                    CHANNELS 3 Yrotation Xrotation Zrotation
                    JOINT rightRingDistal
                    {
                      OFFSET -0.17666387530000027 -0.009072900100000503 0.005668185599999959
                      CHANNELS 3 Yrotation Xrotation Zrotation
                      End Site
                      {
                        OFFSET -0.17666387530000027 -0.009072900100000503 0.005668185599999959
                      }
                    }
                  }
                }
                JOINT rightThumbProximal
                {
                  OFFSET -0.10997596379000074 -0.09577489355940072 0.16989765924999997
                  CHANNELS 3 Yrotation Xrotation Zrotation
                  JOINT rightThumbIntermediate
                  {
                    OFFSET -0.31036620999999986 -0.08229339117999834 0.15440884469999996
                    CHANNELS 3 Yrotation Xrotation Zrotation
                    JOINT rightThumbDistal
                    {
                      OFFSET -0.21631306399999906 -0.08825326400000111 0.018656797720000014
                      CHANNELS 3 Yrotation Xrotation Zrotation
                      End Site
                      {
                        OFFSET -0.21631306399999906 -0.08825326400000111 0.018656797720000014
                      }
                    }
                  }
                }
              }
            }
          }
        }
      }
    }
  }
}
MOTION
Frames: 5
Frame Time: 0.03333333333333333
-4.831435022335582 -4.973325964406965 1.3406773679044555 180 0 0 10.979192920073325 -86.32661534388232 6.618752700319444 0.30231427213647377 43.70351719050925 3.1897371731935853 8.516766200756216 43.19238922543035 -0.5354285235592474 0 0 0 -2.821899921528721 -86.15223469435803 -14.446319856223434 -0.3084908564399873 43.703214855435995 -3.1961068634377834 -8.894504767505657 43.29537970608383 0.9027927944152941 0 0 0 -2.081285648740699 -12.208187428306703 -2.627549754453027 -0.16113725765210685 13.603160437709464 3.2302350756783595 0 0 0 4.677626312039782 -10.657216147187906 -21.34144403240723 -60.3503592872175 -42.43821211275993 -24.346298852841844 -41.7969401574619 12.148273676496201 -60.500161816585475 -9.765074140712976 -0.7576663649737101 -31.970043191748434 0 0 0 0 0 0 0 0 0 0 0 0 0 0 0 0 0 0 0 0 0 0 0 0 0 0 0 0 0 0 0 0 0 0 0 0 0 0 0 0 0 0 0 0 0 -0.000978899865457243 37.527528952211284 8.997525184559544 0 -1.0019329865827376 0 0 0 0 0 0 0 0 0 0 -9.704332109334805 -14.01878722334414 -9.17333424816853 79.62945800679621 -50.23465050975224 12.6344899440156 31.710999860010705 -38.025341806024066 51.24742837482979 9.193726671580977 -23.521536453198046 45.1450441354617 0 0 0 0 0 0 0 0 0 0 0 0 0 0 0 0 0 0 0 0 0 0 0 0 0 0 0 0 0 0 0 0 0 0 0 0 0 0 0 0 0 0 0 0 0
-4.831435022335582 -4.973325964406965 1.3406773679044555 180 0 0 14.720684748901798 -86.35986717322255 3.0152622493534866 0.30231427213647377 43.70351719050925 3.1897371731935853 8.358611658341406 43.1539670753222 -0.3838973166241245 0 0 0 -6.594011569908178 -86.22462036215887 -10.824154679870675 -0.3084908564399873 43.703214855435995 -3.1961068634377834 -8.723211643238919 43.25253180462738 0.7380751102381115 0 0 0 -2.081285648740699 -12.208187428306703 -2.627549754453027 -0.16113725765210685 13.603160437709464 3.2302350756783595 0 0 0 4.677626312039782 -10.657216147187906 -21.34144403240723 -60.3503592872175 -42.43821211275993 -24.346298852841844 -41.87283706844072 12.016374781498843 -60.39651988088604 -9.765074140712976 -0.7576663649737101 -31.970043191748434 0 0 0 0 0 0 0 0 0 0 0 0 0 0 0 0 0 0 0 0 0 0 0 0 0 0 0 0 0 0 0 0 0 0 0 0 0 0 0 0 0 0 0 0 0 -0.0009627622276815663 36.190119399321986 8.997622351178283 0 -0.43197799248004054 0 0 0 0 0 0 0 0 0 0 -9.704332109334805 -14.01878722334414 -9.17333424816853 79.62945800679621 -50.23465050975224 12.6344899440156 31.6108483586492 -37.92524699111366 51.353300409108336 9.193726671580977 -23.521536453198046 45.1450441354617 0 0 0 0 0 0 0 0 0 0 0 0 0 0 0 0 0 0 0 0 0 0 0 0 0 0 0 0 0 0 0 0 0 0 0 0 0 0 0 0 0 0 0 0 0
-4.831435022335582 -4.973325964406965 1.3406773679044555 180 0 0 18.51424401151954 -86.37793153585524 -0.6402962539653062 0.30231427213647377 43.70351719050925 3.1897371731935853 8.200417548297775 43.115849769006196 -0.23231624800232453 0 0 0 -10.493987307479845 -86.28074048331753 -7.074122047611048 -0.3084908564399873 43.703214855435995 -3.1961068634377834 -8.55187077700363 43.210046704789484 0.5732977637897105 0 0 0 -2.081285648740699 -12.208187428306703 -2.627549754453027 -0.16113725765210685 13.603160437709464 3.2302350756783595 0 0 0 4.677626312039782 -10.657216147187906 -21.34144403240723 -60.3503592872175 -42.43821211275993 -24.346298852841844 -41.94894233106047 11.884610284530867 -60.29275191967394 -9.765074140712976 -0.7576663649737101 -31.970043191748434 0 0 0 0 0 0 0 0 0 0 0 0 0 0 0 0 0 0 0 0 0 0 0 0 0 0 0 0 0 0 0 0 0 0 0 0 0 0 0 0 0 0 0 0 0 -0.0009496310661541507 34.852707060457796 8.997715962731736 0 0.13797699822617868 0 0 0 0 0 0 0 0 0 0 -9.704332109334805 -14.01878722334414 -9.17333424816853 79.62945800679621 -50.23465050975224 12.6344899440156 31.511069911259973 -37.82500721364784 51.45880815376771 9.193726671580977 -23.521536453198046 45.1450441354617 0 0 0 0 0 0 0 0 0 0 0 0 0 0 0 0 0 0 0 0 0 0 0 0 0 0 0 0 0 0 0 0 0 0 0 0 0 0 0 0 0 0 0 0 0
-4.831435022335582 -4.973325964406965 1.3406773679044555 180 0 0 26.135775296269017 -86.36778287630639 -7.9857505398696125 0.30231427213647377 43.70351719050925 3.1897371731935853 7.883812555481233 43.04050865852704 0.07108338607884636 0 0 0 -18.559784194076716 -86.34135667511873 0.6917002646574235 -0.3084908564399873 43.703214855435995 -3.1961068634377834 -8.208931932956146 43.12614307802359 0.24344351021091842 0 0 0 -2.081285648740699 -12.208187428306703 -2.627549754453027 -0.16113725765210685 13.603160437709464 3.2302350756783595 0 0 0 4.677626312039782 -10.657216147187906 -21.34144403240723 -60.3503592872175 -42.43821211275993 -24.346298852841844 -42.101778633487726 11.621450413114001 -60.084783001982146 -9.765074140712976 -0.7576663649737101 -31.970043191748434 0 0 0 0 0 0 0 0 0 0 0 0 0 0 0 0 0 0 0 0 0 0 0 0 0 0 0 0 0 0 0 0 0 0 0 0 0 0 0 0 0 0 0 0 0 -0.0009321968690421891 32.15985882819497 8.997900925735975 0 1.2792479940912405 0 0 0 0 0 0 0 0 0 0 -9.704332109334805 -14.01878722334414 -9.17333424816853 79.62945800679621 -50.23465050975224 12.6344899440156 31.312601309054973 -37.624080969356775 51.668771436978915 9.193726671580977 -23.521536453198046 45.1450441354617 0 0 0 0 0 0 0 0 0 0 0 0 0 0 0 0 0 0 0 0 0 0 0 0 0 0 0 0 0 0 0 0 0 0 0 0 0 0 0 0 0 0 0 0 0
-4.831435022335582 -4.973325964406965 1.3406773679044555 180 0 0 29.90044770214247 -86.33969799030335 -11.612352562307116 0.30231427213647377 43.70351719050925 3.1897371731935853 7.725411412807988 43.00328839435069 0.2228948429512118 0 0 0 -22.653850826363037 -86.34499771345159 4.635742852512445 -0.3084908564399873 43.703214855435995 -3.1961068634377834 -8.037334422369087 43.08470901507841 0.07838289807771513 0 0 0 -2.081285648740699 -12.208187428306703 -2.627549754453027 -0.16113725765210685 13.603160437709464 3.2302350756783595 0 0 0 4.677626312039782 -10.657216147187906 -21.34144403240723 -60.3503592872175 -42.43821211275993 -24.346298852841844 -42.178511711557555 11.490059398324922 -59.98058922712536 -9.765074140712976 -0.7576663649737101 -31.970043191748434 0 0 0 0 0 0 0 0 0 0 0 0 0 0 0 0 0 0 0 0 0 0 0 0 0 0 0 0 0 0 0 0 0 0 0 0 0 0 0 0 0 0 0 0 0 -0.0009270729262472414 30.80582183189496 8.997989725822153 0 1.8504515118264575 0 0 0 0 0 0 0 0 0 0 -9.704332109334805 -14.01878722334414 -9.17333424816853 79.62945800679621 -50.23465050975224 12.6344899440156 31.21391473019951 -37.52339940093579 51.77321305756362 9.193726671580977 -23.521536453198046 45.14504676245372 0 0 0 0 0 0 0 0 0 0 0 0 0 0 0 0 0 0 0 0 0 0 0 0 0 0 0 0 0 0 0 0 0 0 0 0 0 0 0 0 0 0 0 0 0
